<svg width="1154" height="1155" viewBox="0 0 1154 1155" fill="none" xmlns="http://www.w3.org/2000/svg">
<g clip-path="url(#clip0_9179_1071)">
<rect width="1154" height="1154" transform="translate(0 0.43457)" fill="#1EBFBF"/>
<path fill-rule="evenodd" clip-rule="evenodd" d="M737.747 194.812C736.878 194.79 736.007 194.768 735.134 194.745H560.6C446.349 200.991 398.323 268.255 385.438 304.077C334.394 459.126 286.87 761.584 280.421 803.591C273.972 845.597 273.114 871.172 273.114 871.172C272.68 881.843 273.664 893.396 276.501 904.618C290.535 945.849 332.848 980.582 426.068 945.979C514.126 907.063 618.154 858.758 725.723 804.507C769.186 779.038 826.987 730.09 858.528 666.565C871.43 640.58 879.938 612.157 881.274 581.904C881.221 576.973 881.169 572.023 881.117 567.056C880.354 494.158 879.553 417.557 874.703 343.724C874.703 343.724 870.948 296.237 868.475 279.123C866.002 262.01 862.605 256.072 862.605 256.072C847.482 222.678 818.391 205.995 787.513 198.204C773.431 195.73 756.132 195.285 737.747 194.812ZM731.087 351.173C731.087 342.945 724.362 336.275 716.068 336.275H708.559C613.171 336.275 535.843 412.98 535.843 507.601V587.677C535.843 637.044 495.499 677.064 445.731 677.064H438.222C429.927 677.064 423.203 683.734 423.203 691.962V744.105C423.203 752.333 429.927 759.003 438.222 759.003H445.731C541.119 759.003 618.446 682.298 618.446 587.677V507.601C618.446 458.234 658.791 418.213 708.559 418.213H716.068C724.362 418.213 731.087 411.543 731.087 403.316V351.173Z" fill="#16191C"/>
<path d="M716.068 336.275C724.362 336.275 731.087 342.945 731.087 351.173V403.316C731.087 411.543 724.362 418.213 716.068 418.213H708.559C658.791 418.213 618.446 458.234 618.446 507.601V587.677C618.446 682.298 541.119 759.003 445.731 759.003H438.222C429.927 759.003 423.203 752.333 423.203 744.105L423.203 691.962C423.203 683.734 429.927 677.064 438.222 677.064H445.731C495.499 677.064 535.843 637.044 535.843 587.677V507.601C535.843 412.98 613.171 336.275 708.559 336.275L716.068 336.275Z" fill="#1EBFBF"/>
</g>
<defs>
<clipPath id="clip0_9179_1071">
<rect width="1154" height="1154" fill="white" transform="translate(0 0.43457)"/>
</clipPath>
</defs>
</svg>
